<?xml version="1.0" standalone="no"?>
<!DOCTYPE svg PUBLIC "-//W3C//DTD SVG 20010904//EN"
 "http://www.w3.org/TR/2001/REC-SVG-20010904/DTD/svg10.dtd">
<svg version="1.0" xmlns="http://www.w3.org/2000/svg"
 width="16.000000pt" height="16.000000pt" viewBox="0 0 16.000000 16.000000"
 preserveAspectRatio="xMidYMid meet">
<metadata>
Created by potrace 1.11, written by Peter Selinger 2001-2013
</metadata>
<g transform="translate(0.000000,16.000000) scale(0.004301,-0.004301)"
fill="#000000" stroke="none">
<path d="M835 3479 c-77 -17 -136 -67 -160 -135 -58 -169 116 -328 283 -259
153 64 168 277 26 366 -39 24 -109 37 -149 28z"/>
<path d="M2279 3396 c-2 -2 -74 -6 -159 -9 -151 -6 -172 -8 -275 -27 -27 -5
-61 -12 -75 -14 -119 -22 -501 -148 -532 -175 -4 -4 23 -4 60 0 71 6 462 3
547 -5 28 -3 79 -8 115 -11 342 -30 806 -120 1025 -198 l40 -14 3 42 c3 55 45
185 83 254 16 30 28 55 26 57 -1 1 -38 5 -81 9 -43 4 -87 8 -97 10 -9 2 -39 6
-66 10 -26 4 -59 9 -73 11 -14 2 -45 6 -70 9 -25 3 -54 7 -65 9 -12 2 -48 7
-80 11 -33 4 -71 8 -84 10 -13 3 -69 7 -125 11 -56 3 -104 8 -107 10 -3 2 -8
2 -10 0z"/>
<path d="M3360 3200 c-133 -62 -165 -232 -62 -333 173 -169 444 36 329 248
-50 90 -172 129 -267 85z"/>
<path d="M467 2752 c-20 -81 -53 -208 -73 -282 -49 -184 -84 -354 -99 -485
-21 -174 -9 -482 25 -640 5 -22 12 -56 15 -75 8 -45 67 -271 70 -268 2 2 6 52
10 113 4 60 9 118 11 130 1 11 5 43 9 70 5 47 8 69 20 140 3 17 8 46 11 65 39
241 129 585 221 845 45 127 108 286 133 334 l19 38 -58 17 c-78 23 -154 59
-221 105 l-57 39 -36 -146z"/>
<path d="M3349 2533 c-1 -35 -2 -66 -3 -70 -1 -5 -6 -42 -10 -83 -5 -41 -10
-84 -12 -95 -2 -11 -6 -38 -8 -60 -9 -71 -56 -297 -92 -438 -69 -275 -174
-585 -275 -811 -27 -60 -49 -113 -49 -118 0 -4 8 -8 18 -8 42 0 162 -56 249
-116 l62 -43 7 37 c4 20 37 145 74 277 131 463 154 594 154 875 0 213 -16 340
-71 575 -33 141 -42 157 -44 78z"/>
<path d="M179 817 c-19 -7 -46 -21 -59 -30 -29 -20 -80 -93 -81 -116 0 -9 -2
-25 -5 -36 -7 -36 17 -111 47 -148 124 -150 369 -62 369 133 0 75 -46 151
-111 185 -40 21 -119 27 -160 12z"/>
<path d="M730 707 c0 -50 -34 -175 -69 -250 -29 -66 -30 -67 -8 -67 48 -1 146
-9 312 -25 17 -2 62 -6 100 -10 39 -4 81 -9 95 -12 57 -11 459 -10 550 3 120
16 171 24 192 30 9 3 25 6 35 8 133 27 343 99 502 173 l96 44 -55 -5 c-246
-25 -675 -26 -875 -2 -16 2 -59 7 -95 11 -236 24 -567 81 -696 120 -75 23 -84
21 -84 -18z"/>
<path d="M2802 577 c-153 -58 -191 -253 -67 -354 146 -121 362 -9 342 178 -8
75 -63 147 -132 173 -37 14 -110 16 -143 3z"/>
</g>
</svg>
